<mxfile host="65bd71144e">
    <diagram id="bOU6IH4MebC2CGCknhDz" name="Page-1">
        <mxGraphModel dx="2080" dy="488" grid="1" gridSize="10" guides="1" tooltips="1" connect="1" arrows="1" fold="1" page="1" pageScale="1" pageWidth="850" pageHeight="1100" math="0" shadow="0">
            <root>
                <mxCell id="0"/>
                <mxCell id="1" parent="0"/>
                <mxCell id="2" value="" style="shape=umlLifeline;perimeter=lifelinePerimeter;whiteSpace=wrap;html=1;container=1;dropTarget=0;collapsible=0;recursiveResize=0;outlineConnect=0;portConstraint=eastwest;newEdgeStyle={&quot;edgeStyle&quot;:&quot;elbowEdgeStyle&quot;,&quot;elbow&quot;:&quot;vertical&quot;,&quot;curved&quot;:0,&quot;rounded&quot;:0};participant=umlActor;fillColor=#fff2cc;strokeColor=#000000;" vertex="1" parent="1">
                    <mxGeometry x="-310" y="560" width="20" height="610" as="geometry"/>
                </mxCell>
                <mxCell id="3" value="" style="html=1;points=[];perimeter=orthogonalPerimeter;outlineConnect=0;targetShapes=umlLifeline;portConstraint=eastwest;newEdgeStyle={&quot;edgeStyle&quot;:&quot;elbowEdgeStyle&quot;,&quot;elbow&quot;:&quot;vertical&quot;,&quot;curved&quot;:0,&quot;rounded&quot;:0};fillColor=#fff2cc;strokeColor=#d6b656;" vertex="1" parent="2">
                    <mxGeometry x="5" y="200" width="10" height="140" as="geometry"/>
                </mxCell>
                <mxCell id="4" value="" style="html=1;points=[];perimeter=orthogonalPerimeter;outlineConnect=0;targetShapes=umlLifeline;portConstraint=eastwest;newEdgeStyle={&quot;edgeStyle&quot;:&quot;elbowEdgeStyle&quot;,&quot;elbow&quot;:&quot;vertical&quot;,&quot;curved&quot;:0,&quot;rounded&quot;:0};fillColor=#fff2cc;strokeColor=#d6b656;" vertex="1" parent="2">
                    <mxGeometry x="5" y="490" width="10" height="110" as="geometry"/>
                </mxCell>
                <mxCell id="5" value="MedIN" style="shape=umlLifeline;perimeter=lifelinePerimeter;whiteSpace=wrap;html=1;container=1;dropTarget=0;collapsible=0;recursiveResize=0;outlineConnect=0;portConstraint=eastwest;newEdgeStyle={&quot;edgeStyle&quot;:&quot;elbowEdgeStyle&quot;,&quot;elbow&quot;:&quot;vertical&quot;,&quot;curved&quot;:0,&quot;rounded&quot;:0};fillColor=#e1d5e7;strokeColor=#9673a6;" vertex="1" parent="1">
                    <mxGeometry x="-120" y="560" width="130" height="610" as="geometry"/>
                </mxCell>
                <mxCell id="6" value="" style="html=1;points=[];perimeter=orthogonalPerimeter;outlineConnect=0;targetShapes=umlLifeline;portConstraint=eastwest;newEdgeStyle={&quot;edgeStyle&quot;:&quot;elbowEdgeStyle&quot;,&quot;elbow&quot;:&quot;vertical&quot;,&quot;curved&quot;:0,&quot;rounded&quot;:0};fillColor=#e1d5e7;strokeColor=#9673a6;" vertex="1" parent="5">
                    <mxGeometry x="60" y="110" width="10" height="60" as="geometry"/>
                </mxCell>
                <mxCell id="7" value="" style="html=1;points=[];perimeter=orthogonalPerimeter;outlineConnect=0;targetShapes=umlLifeline;portConstraint=eastwest;newEdgeStyle={&quot;edgeStyle&quot;:&quot;elbowEdgeStyle&quot;,&quot;elbow&quot;:&quot;vertical&quot;,&quot;curved&quot;:0,&quot;rounded&quot;:0};fillColor=#e1d5e7;strokeColor=#9673a6;" vertex="1" parent="5">
                    <mxGeometry x="60" y="390" width="10" height="70" as="geometry"/>
                </mxCell>
                <mxCell id="8" value="" style="html=1;points=[];perimeter=orthogonalPerimeter;outlineConnect=0;targetShapes=umlLifeline;portConstraint=eastwest;newEdgeStyle={&quot;edgeStyle&quot;:&quot;elbowEdgeStyle&quot;,&quot;elbow&quot;:&quot;vertical&quot;,&quot;curved&quot;:0,&quot;rounded&quot;:0};fillColor=#e1d5e7;strokeColor=#9673a6;" vertex="1" parent="5">
                    <mxGeometry x="60" y="250" width="10" height="50" as="geometry"/>
                </mxCell>
                <mxCell id="9" value="" style="html=1;points=[];perimeter=orthogonalPerimeter;outlineConnect=0;targetShapes=umlLifeline;portConstraint=eastwest;newEdgeStyle={&quot;edgeStyle&quot;:&quot;elbowEdgeStyle&quot;,&quot;elbow&quot;:&quot;vertical&quot;,&quot;curved&quot;:0,&quot;rounded&quot;:0};fillColor=#e1d5e7;strokeColor=#9673a6;" vertex="1" parent="5">
                    <mxGeometry x="60" y="510" width="10" height="80" as="geometry"/>
                </mxCell>
                <mxCell id="10" value="Teenuse Kasutaja (TTO klientsüsteem, TJT)" style="text;html=1;strokeColor=none;fillColor=none;align=center;verticalAlign=middle;whiteSpace=wrap;rounded=0;" vertex="1" parent="1">
                    <mxGeometry x="-370" y="510" width="140" height="50" as="geometry"/>
                </mxCell>
                <mxCell id="11" value="" style="html=1;points=[];perimeter=orthogonalPerimeter;outlineConnect=0;targetShapes=umlLifeline;portConstraint=eastwest;newEdgeStyle={&quot;edgeStyle&quot;:&quot;elbowEdgeStyle&quot;,&quot;elbow&quot;:&quot;vertical&quot;,&quot;curved&quot;:0,&quot;rounded&quot;:0};fillColor=#fff2cc;strokeColor=#d6b656;" vertex="1" parent="1">
                    <mxGeometry x="-305" y="640" width="10" height="120" as="geometry"/>
                </mxCell>
                <mxCell id="12" value="Lõppkasutaja on sisestanud lisatava ravimi toimeainete või preparaadi info" style="text;html=1;strokeColor=none;fillColor=none;align=right;verticalAlign=middle;whiteSpace=wrap;rounded=0;fontSize=11;" vertex="1" parent="1">
                    <mxGeometry x="-440" y="630" width="120" height="70" as="geometry"/>
                </mxCell>
                <mxCell id="13" value="&lt;div&gt;POST [base]/MedicationStatement/&lt;div&gt;$interactions (subject, &lt;b&gt;input&lt;/b&gt;)&lt;/div&gt;&lt;/div&gt;&lt;div&gt;&lt;br&gt;&lt;/div&gt;" style="html=1;verticalAlign=bottom;startArrow=oval;startFill=1;endArrow=block;startSize=8;edgeStyle=elbowEdgeStyle;elbow=vertical;curved=0;rounded=0;" edge="1" parent="1" source="11" target="6">
                    <mxGeometry width="60" relative="1" as="geometry">
                        <mxPoint x="-295" y="854.58" as="sourcePoint"/>
                        <mxPoint x="-235" y="854.58" as="targetPoint"/>
                        <Array as="points">
                            <mxPoint x="-120" y="670"/>
                            <mxPoint x="-110" y="650"/>
                            <mxPoint x="-280" y="855"/>
                        </Array>
                    </mxGeometry>
                </mxCell>
                <mxCell id="14" value="FHIR Bundle" style="html=1;verticalAlign=bottom;endArrow=open;dashed=1;endSize=8;edgeStyle=elbowEdgeStyle;elbow=vertical;curved=0;rounded=0;" edge="1" parent="1" source="6" target="11">
                    <mxGeometry relative="1" as="geometry">
                        <mxPoint x="-120" y="930" as="sourcePoint"/>
                        <mxPoint x="-200" y="930" as="targetPoint"/>
                        <Array as="points">
                            <mxPoint x="-120" y="730"/>
                            <mxPoint x="-90" y="710"/>
                            <mxPoint x="-210" y="940"/>
                        </Array>
                    </mxGeometry>
                </mxCell>
                <mxCell id="15" value="Tekkivate koostoimete kuvamine lõppkasutajale" style="text;html=1;strokeColor=none;fillColor=none;align=right;verticalAlign=middle;whiteSpace=wrap;rounded=0;fontSize=11;" vertex="1" parent="1">
                    <mxGeometry x="-440" y="720" width="120" height="30" as="geometry"/>
                </mxCell>
                <mxCell id="16" value="" style="html=1;points=[];perimeter=orthogonalPerimeter;outlineConnect=0;targetShapes=umlLifeline;portConstraint=eastwest;newEdgeStyle={&quot;edgeStyle&quot;:&quot;elbowEdgeStyle&quot;,&quot;elbow&quot;:&quot;vertical&quot;,&quot;curved&quot;:0,&quot;rounded&quot;:0};fillColor=#fff2cc;strokeColor=#d6b656;" vertex="1" parent="1">
                    <mxGeometry x="-305" y="900" width="10" height="150" as="geometry"/>
                </mxCell>
                <mxCell id="17" value="Lõppkasutaja on ravimi andmetega lõpetanud" style="text;html=1;strokeColor=none;fillColor=none;align=right;verticalAlign=middle;whiteSpace=wrap;rounded=0;fontSize=11;" vertex="1" parent="1">
                    <mxGeometry x="-430" y="940" width="120" height="40" as="geometry"/>
                </mxCell>
                <mxCell id="18" value="POST [base]/MedicationStatement/&lt;div&gt;$validate-custom&lt;br&gt;&lt;/div&gt;" style="html=1;verticalAlign=bottom;startArrow=oval;startFill=1;endArrow=block;startSize=8;edgeStyle=elbowEdgeStyle;elbow=vertical;curved=0;rounded=0;" edge="1" parent="1" source="16" target="7">
                    <mxGeometry width="60" relative="1" as="geometry">
                        <mxPoint x="-260" y="1054.58" as="sourcePoint"/>
                        <mxPoint x="-200" y="1054.58" as="targetPoint"/>
                        <Array as="points">
                            <mxPoint x="-150" y="960"/>
                            <mxPoint x="-110" y="990"/>
                            <mxPoint x="-245" y="1055"/>
                        </Array>
                    </mxGeometry>
                </mxCell>
                <mxCell id="19" value="FHIR OperationOutcome" style="html=1;verticalAlign=bottom;endArrow=open;dashed=1;endSize=8;edgeStyle=elbowEdgeStyle;elbow=vertical;curved=0;rounded=0;" edge="1" parent="1" source="7" target="16">
                    <mxGeometry relative="1" as="geometry">
                        <mxPoint x="-85" y="1130" as="sourcePoint"/>
                        <mxPoint x="-165" y="1130" as="targetPoint"/>
                        <Array as="points">
                            <mxPoint x="-110" y="1020"/>
                            <mxPoint x="-140" y="1080"/>
                            <mxPoint x="-175" y="1140"/>
                        </Array>
                    </mxGeometry>
                </mxCell>
                <mxCell id="20" value="Lõppkasutaja on sisestatud lisatava ravimi andmed" style="text;html=1;strokeColor=none;fillColor=none;align=right;verticalAlign=middle;whiteSpace=wrap;rounded=0;fontSize=11;" vertex="1" parent="1">
                    <mxGeometry x="-440" y="790" width="120" height="30" as="geometry"/>
                </mxCell>
                <mxCell id="21" value="&lt;div&gt;POST [base]/Task/$reimbursements&lt;br&gt;&lt;/div&gt;" style="html=1;verticalAlign=bottom;startArrow=oval;startFill=1;endArrow=block;startSize=8;edgeStyle=elbowEdgeStyle;elbow=vertical;curved=0;rounded=0;exitX=0.4;exitY=0.365;exitDx=0;exitDy=0;exitPerimeter=0;" edge="1" parent="1" source="3" target="8">
                    <mxGeometry width="60" relative="1" as="geometry">
                        <mxPoint x="-290" y="810" as="sourcePoint"/>
                        <mxPoint x="-55" y="810" as="targetPoint"/>
                        <Array as="points">
                            <mxPoint x="-115" y="810"/>
                            <mxPoint x="-105" y="790"/>
                            <mxPoint x="-275" y="995"/>
                        </Array>
                    </mxGeometry>
                </mxCell>
                <mxCell id="22" value="Päri tekkivad koostoimed" style="text;html=1;strokeColor=none;fillColor=none;align=center;verticalAlign=middle;whiteSpace=wrap;rounded=0;fontSize=11;fontStyle=2" vertex="1" parent="1">
                    <mxGeometry x="-260" y="670" width="170" height="20" as="geometry"/>
                </mxCell>
                <mxCell id="23" value="Päri võimalikud soodusmäärad" style="text;html=1;strokeColor=none;fillColor=none;align=center;verticalAlign=middle;whiteSpace=wrap;rounded=0;fontSize=11;fontStyle=2" vertex="1" parent="1">
                    <mxGeometry x="-260" y="810" width="170" height="20" as="geometry"/>
                </mxCell>
                <mxCell id="24" value="FHIR Task" style="html=1;verticalAlign=bottom;endArrow=open;dashed=1;endSize=8;edgeStyle=elbowEdgeStyle;elbow=vertical;curved=0;rounded=0;" edge="1" parent="1" source="8" target="3">
                    <mxGeometry relative="1" as="geometry">
                        <mxPoint x="-55" y="850" as="sourcePoint"/>
                        <mxPoint x="-290" y="850" as="targetPoint"/>
                        <Array as="points">
                            <mxPoint x="-120" y="860"/>
                            <mxPoint x="-85" y="830"/>
                            <mxPoint x="-205" y="1060"/>
                        </Array>
                    </mxGeometry>
                </mxCell>
                <mxCell id="25" value="Soodusmäärade valiku kuvamine ja valiku tegemine lõppkasutaja poolt" style="text;html=1;strokeColor=none;fillColor=none;align=right;verticalAlign=middle;whiteSpace=wrap;rounded=0;fontSize=11;" vertex="1" parent="1">
                    <mxGeometry x="-430" y="850" width="120" height="45" as="geometry"/>
                </mxCell>
                <mxCell id="26" value="&amp;nbsp;Lisatava ravimi andmestiku valideerimine&amp;nbsp;" style="text;html=1;strokeColor=none;fillColor=none;align=center;verticalAlign=middle;whiteSpace=wrap;rounded=0;fontSize=11;fontStyle=2" vertex="1" parent="1">
                    <mxGeometry x="-260" y="960" width="170" height="30" as="geometry"/>
                </mxCell>
                <mxCell id="27" value="Valideerimisvigade kuvamine lõppkasutajale" style="text;html=1;strokeColor=none;fillColor=none;align=right;verticalAlign=middle;whiteSpace=wrap;rounded=0;fontSize=11;" vertex="1" parent="1">
                    <mxGeometry x="-430" y="1000" width="120" height="40" as="geometry"/>
                </mxCell>
                <mxCell id="28" value="Lõppkasutaja on muudatustega lõpule jõudnud ja soovib Patsiendi ravimiskeemi kinnitada, retseptid luua" style="text;html=1;strokeColor=none;fillColor=none;align=right;verticalAlign=middle;whiteSpace=wrap;rounded=0;fontSize=11;" vertex="1" parent="1">
                    <mxGeometry x="-470" y="1070" width="160" height="40" as="geometry"/>
                </mxCell>
                <mxCell id="29" value="POST [base]/MedicationStatement/&lt;div&gt;$confirm&lt;/div&gt;" style="html=1;verticalAlign=bottom;startArrow=oval;startFill=1;endArrow=block;startSize=8;edgeStyle=elbowEdgeStyle;elbow=vertical;curved=0;rounded=0;" edge="1" parent="1" source="4" target="9">
                    <mxGeometry width="60" relative="1" as="geometry">
                        <mxPoint x="-292.5" y="1089.58" as="sourcePoint"/>
                        <mxPoint x="-57.5" y="1089.58" as="targetPoint"/>
                        <Array as="points">
                            <mxPoint x="-147.5" y="1089.58"/>
                            <mxPoint x="-107.5" y="1119.58"/>
                            <mxPoint x="-242.5" y="1184.58"/>
                        </Array>
                    </mxGeometry>
                </mxCell>
                <mxCell id="30" value="Ravimiskeemi muudatuste kinnitamine" style="text;html=1;strokeColor=none;fillColor=none;align=center;verticalAlign=middle;whiteSpace=wrap;rounded=0;fontSize=11;fontStyle=2" vertex="1" parent="1">
                    <mxGeometry x="-260" y="1090" width="170" height="30" as="geometry"/>
                </mxCell>
                <mxCell id="31" value="FHIR Bundle" style="html=1;verticalAlign=bottom;endArrow=open;dashed=1;endSize=8;edgeStyle=elbowEdgeStyle;elbow=vertical;curved=0;rounded=0;" edge="1" parent="1" source="9" target="4">
                    <mxGeometry relative="1" as="geometry">
                        <mxPoint x="-70" y="1140" as="sourcePoint"/>
                        <mxPoint x="-305" y="1140" as="targetPoint"/>
                        <Array as="points">
                            <mxPoint x="-110" y="1150"/>
                            <mxPoint x="-120" y="1140"/>
                            <mxPoint x="-150" y="1200"/>
                            <mxPoint x="-185" y="1260"/>
                        </Array>
                    </mxGeometry>
                </mxCell>
            </root>
        </mxGraphModel>
    </diagram>
</mxfile>